<?xml version="1.0" standalone="no"?>
<!DOCTYPE svg PUBLIC "-//W3C//DTD SVG 20010904//EN"
 "http://www.w3.org/TR/2001/REC-SVG-20010904/DTD/svg10.dtd">
<svg version="1.0" xmlns="http://www.w3.org/2000/svg"
 width="145.000000pt" height="145.000000pt" viewBox="0 0 145.000000 145.000000"
 preserveAspectRatio="xMidYMid meet">
<metadata>
Created by potrace 1.14, written by Peter Selinger 2001-2017
</metadata>
<g transform="translate(0.000000,145.000000) scale(0.100000,-0.100000)"
fill="#000000" stroke="none">
<path d="M1253 1090 c-1 -11 2 -18 8 -15 11 7 12 35 1 35 -4 0 -8 -9 -9 -20z"/>
<path d="M751 1050 c0 -29 1 -32 10 -17 7 11 7 23 0 35 -9 14 -10 11 -10 -18z"/>
<path d="M720 1040 c0 -5 5 -10 11 -10 5 0 7 5 4 10 -3 6 -8 10 -11 10 -2 0
-4 -4 -4 -10z"/>
<path d="M775 1040 c-3 -5 1 -10 10 -10 9 0 13 5 10 10 -3 6 -8 10 -10 10 -2
0 -7 -4 -10 -10z"/>
<path d="M1243 1022 c-7 -15 -16 -42 -19 -61 -4 -20 -14 -36 -25 -38 -11 -3
-15 -11 -12 -21 5 -11 3 -13 -7 -7 -8 5 -11 4 -6 -3 3 -5 0 -13 -6 -15 -9 -4
-8 -6 2 -6 9 -1 22 5 29 12 11 10 12 8 3 -9 -6 -12 -8 -24 -5 -28 3 -3 1 -6
-5 -6 -7 0 -12 -7 -12 -15 0 -18 16 -20 23 -2 3 6 6 2 6 -10 1 -16 -5 -23 -17
-23 -13 0 -18 -6 -16 -22 1 -13 3 -28 3 -34 1 -18 71 -23 71 -6 0 8 -6 12 -14
9 -14 -5 -14 4 -1 91 5 34 10 42 28 43 12 0 16 3 9 6 -6 2 -10 9 -6 14 3 5 1
9 -5 9 -5 0 -12 -6 -15 -12 -4 -7 -4 3 0 22 8 48 16 140 12 140 -2 0 -9 -12
-15 -28z"/>
<path d="M1276 1015 c4 -22 8 -58 10 -80 2 -22 4 -42 5 -45 1 -3 1 -8 0 -12 0
-5 4 -8 9 -8 6 0 10 -5 10 -11 0 -7 7 -17 17 -24 19 -14 9 -37 -12 -28 -10 3
-15 -1 -15 -15 0 -42 20 -31 49 25 35 67 57 99 47 70 -7 -21 9 -57 25 -57 6 0
8 8 5 18 -5 14 -4 14 9 -2 14 -19 15 -18 15 11 0 54 -46 68 -82 24 -10 -13
-18 -17 -18 -10 0 8 -6 5 -14 -7 -13 -17 -15 -15 -14 26 0 28 -10 68 -26 105
-25 56 -26 57 -20 20z"/>
<path d="M780 1005 c0 -8 4 -15 10 -15 5 0 7 7 4 15 -4 8 -8 15 -10 15 -2 0
-4 -7 -4 -15z"/>
<path d="M720 995 c0 -8 2 -15 4 -15 2 0 6 7 10 15 3 8 1 15 -4 15 -6 0 -10
-7 -10 -15z"/>
<path d="M690 958 c0 -23 3 -29 9 -19 8 12 4 51 -5 51 -2 0 -4 -15 -4 -32z"/>
<path d="M812 949 c-2 -33 2 -49 13 -52 8 -4 17 -2 20 2 3 5 -2 11 -9 14 -8 3
-17 23 -19 44 -3 36 -4 36 -5 -8z"/>
<path d="M70 869 c0 -58 3 -80 12 -77 6 2 14 10 16 18 3 7 0 10 -7 6 -6 -4
-11 -2 -11 3 0 16 20 13 26 -4 4 -8 11 -12 17 -8 7 4 20 8 29 8 16 1 18 -7 18
-62 l0 -63 50 0 50 0 -4 45 c-2 29 1 45 8 45 7 0 7 3 1 8 -14 10 -17 32 -5 32
6 0 10 -5 10 -12 0 -6 7 -3 15 8 8 10 15 14 15 7 0 -7 6 -10 13 -7 8 3 14 -2
14 -11 0 -8 -3 -15 -6 -15 -3 0 -4 -22 -3 -50 4 -47 5 -50 32 -50 26 0 28 3
24 28 -3 15 -11 32 -18 37 -16 13 -15 81 2 78 7 -2 12 9 12 30 l0 32 -125 -2
c-146 -1 -169 2 -162 28 3 10 -1 20 -9 23 -11 4 -14 -11 -14 -75z m159 -55
c-6 -8 -9 -17 -5 -21 3 -3 6 -1 6 6 0 7 4 10 10 6 5 -3 7 -12 4 -19 -7 -19
-41 -9 -41 12 0 22 17 43 29 36 5 -3 4 -12 -3 -20z"/>
<path d="M1370 935 c-7 -9 -8 -15 -2 -15 5 0 12 7 16 15 3 8 4 15 2 15 -2 0
-9 -7 -16 -15z"/>
<path d="M450 911 c0 -25 4 -29 25 -27 22 1 23 2 9 13 -9 7 -14 19 -11 28 4 9
1 15 -8 15 -10 0 -15 -10 -15 -29z"/>
<path d="M658 912 c-10 -2 -18 -8 -18 -13 0 -11 11 -11 30 1 18 11 11 18 -12
12z"/>
<path d="M726 903 c-3 -7 -1 -15 4 -18 4 -3 11 1 13 7 4 10 6 10 6 1 1 -20 21
-15 21 5 0 20 -37 25 -44 5z"/>
<path d="M880 910 c10 -6 11 -10 3 -10 -20 0 -15 -18 7 -25 11 -3 20 -13 20
-21 0 -8 -3 -13 -7 -11 -9 2 -13 -6 -13 -28 0 -21 18 -19 23 3 4 13 5 11 6 -5
1 -17 -5 -23 -19 -23 -20 0 -20 -6 -19 -132 0 -88 -3 -134 -10 -136 -6 -2 -11
-8 -11 -13 0 -6 5 -7 12 -3 7 5 8 3 4 -5 -5 -7 -14 -10 -22 -7 -8 3 -11 0 -7
-9 3 -8 9 -12 14 -10 8 6 25 -41 21 -60 -1 -6 17 -11 41 -12 42 -2 43 -1 39
28 -2 16 -7 27 -11 25 -17 -11 -29 14 -35 72 -5 44 -4 62 4 62 7 0 20 10 31
23 10 12 18 16 19 10 0 -7 -4 -13 -10 -13 -5 0 -10 -4 -10 -10 0 -5 15 -10 34
-10 28 0 35 4 39 23 l4 22 2 -22 c1 -19 7 -23 36 -23 40 0 45 12 13 34 -18 13
-19 16 -5 16 25 0 21 13 -13 38 -36 27 -52 28 -74 3 -10 -11 -24 -17 -32 -14
-8 3 -14 0 -14 -7 0 -20 -17 -1 -22 25 -4 16 0 29 10 34 9 5 13 17 10 29 -3
12 -1 24 6 27 8 3 8 7 -1 11 -24 11 -13 21 22 20 34 -1 35 -2 35 -42 0 -25 5
-44 13 -47 14 -5 89 1 96 8 2 3 4 23 3 46 -2 33 1 40 13 35 16 -6 22 19 7 28
-5 3 -8 21 -7 41 2 27 -1 35 -11 31 -8 -3 -14 -1 -14 4 0 6 -48 10 -117 10
-80 0 -113 -3 -103 -10z m180 -60 c0 -5 -7 -10 -16 -10 -8 0 -12 5 -9 10 3 6
10 10 16 10 5 0 9 -4 9 -10z m0 -30 c8 12 10 11 10 -6 0 -21 -22 -39 -34 -27
-3 4 -6 16 -6 27 0 17 2 18 10 6 9 -13 11 -13 20 0z m-35 -60 c3 -5 1 -10 -4
-10 -6 0 -11 5 -11 10 0 6 2 10 4 10 3 0 8 -4 11 -10z m2 -92 c-3 -8 -6 -5 -6
6 -1 11 2 17 5 13 3 -3 4 -12 1 -19z"/>
<path d="M0 880 c0 -13 5 -18 15 -14 12 5 13 10 4 20 -15 19 -19 18 -19 -6z"/>
<path d="M530 889 c0 -5 4 -8 9 -5 5 4 11 1 13 -6 3 -8 7 -6 11 5 5 12 1 17
-13 17 -11 0 -20 -5 -20 -11z"/>
<path d="M425 880 c3 -5 8 -10 11 -10 2 0 4 5 4 10 0 6 -5 10 -11 10 -5 0 -7
-4 -4 -10z"/>
<path d="M1135 881 c-3 -5 -2 -12 3 -15 5 -3 9 1 9 9 0 17 -3 19 -12 6z"/>
<path d="M1366 829 c-10 -17 -16 -33 -13 -36 7 -6 -36 -49 -46 -45 -5 1 -6 -2
-2 -8 3 -5 26 -10 50 -10 l44 0 -3 35 c-1 19 2 37 8 39 6 2 5 5 -2 5 -7 1 -10
5 -7 11 3 5 2 17 -2 25 -7 12 -12 9 -27 -16z"/>
<path d="M30 800 c-1 -30 -4 -49 -7 -42 -15 39 -21 -7 -22 -168 0 -165 1 -180
17 -180 10 0 23 12 29 28 11 27 11 27 6 -5 -4 -26 -2 -33 11 -33 14 0 16 8 11
52 -7 60 -11 68 -31 68 -9 0 -14 11 -14 35 0 31 3 35 25 35 25 0 33 18 16 35
-5 6 -11 21 -13 35 -2 20 2 26 20 28 18 3 22 10 22 43 0 28 -4 39 -15 39 -8 0
-23 19 -34 43 l-19 42 -2 -55z"/>
<path d="M2 820 c0 -14 2 -19 5 -12 2 6 2 18 0 25 -3 6 -5 1 -5 -13z"/>
<path d="M715 821 c-3 -5 -1 -12 5 -16 5 -3 10 1 10 9 0 18 -6 21 -15 7z"/>
<path d="M771 814 c0 -11 3 -14 6 -6 3 7 2 16 -1 19 -3 4 -6 -2 -5 -13z"/>
<path d="M1150 820 c0 -5 5 -10 11 -10 5 0 7 5 4 10 -3 6 -8 10 -11 10 -2 0
-4 -4 -4 -10z"/>
<path d="M367 813 c-4 -3 -7 -11 -7 -17 0 -6 5 -5 12 2 6 6 9 14 7 17 -3 3 -9
2 -12 -2z"/>
<path d="M513 803 c-13 -2 -23 -10 -23 -17 0 -9 9 -12 25 -8 14 2 25 11 25 18
0 8 -1 13 -2 13 -2 -1 -13 -4 -25 -6z"/>
<path d="M420 785 c0 -8 2 -15 4 -15 2 0 6 7 10 15 3 8 1 15 -4 15 -6 0 -10
-7 -10 -15z"/>
<path d="M451 784 c0 -11 3 -14 6 -6 3 7 2 16 -1 19 -3 4 -6 -2 -5 -13z"/>
<path d="M370 770 c0 -5 5 -10 10 -10 6 0 10 5 10 10 0 6 -4 10 -10 10 -5 0
-10 -4 -10 -10z"/>
<path d="M505 749 c-17 -8 -20 -17 -17 -45 4 -30 7 -34 26 -28 11 4 22 7 23 8
3 2 5 32 4 54 -1 24 -6 26 -36 11z m25 -18 c0 -5 -7 -11 -14 -14 -10 -4 -13
-1 -9 9 6 15 23 19 23 5z"/>
<path d="M1414 735 c0 -17 5 -25 18 -25 13 0 18 8 18 25 0 17 -5 25 -18 25
-13 0 -18 -8 -18 -25z"/>
<path d="M119 723 c-5 -27 -2 -33 13 -33 14 0 18 7 17 33 l-2 32 -5 -30 -5
-30 -7 30 -6 30 -5 -32z"/>
<path d="M282 723 c2 -17 10 -29 21 -31 13 -3 17 3 17 27 0 25 -4 31 -21 31
-16 0 -20 -5 -17 -27z"/>
<path d="M724 720 c0 -13 4 -16 10 -10 7 7 7 13 0 20 -6 6 -10 3 -10 -10z"/>
<path d="M950 715 c0 -16 6 -25 15 -25 9 0 15 9 15 25 0 16 -6 25 -15 25 -9 0
-15 -9 -15 -25z"/>
<path d="M1130 715 c0 -16 6 -25 15 -25 9 0 15 9 15 25 0 16 -6 25 -15 25 -9
0 -15 -9 -15 -25z"/>
<path d="M601 714 c0 -11 3 -14 6 -6 3 7 2 16 -1 19 -3 4 -6 -2 -5 -13z"/>
<path d="M426 702 c-2 -4 4 -8 15 -8 10 0 19 4 19 8 0 4 -6 8 -14 8 -8 0 -17
-4 -20 -8z"/>
<path d="M1280 701 c0 -6 5 -13 10 -16 6 -3 10 1 10 9 0 9 -4 16 -10 16 -5 0
-10 -4 -10 -9z"/>
<path d="M1420 648 c0 -4 4 -8 9 -8 5 0 12 -12 14 -27 3 -24 4 -22 6 8 1 26
-3 36 -14 36 -8 0 -15 -4 -15 -9z"/>
<path d="M120 617 c0 -23 5 -34 15 -34 10 0 15 11 15 34 0 23 -5 33 -15 33
-10 0 -15 -10 -15 -33z"/>
<path d="M280 620 c0 -23 4 -30 20 -30 16 0 20 7 20 30 0 23 -4 30 -20 30 -16
0 -20 -7 -20 -30z"/>
<path d="M482 641 c-11 -7 -11 -9 1 -14 11 -4 14 -15 11 -36 -5 -29 -4 -29 24
-19 42 16 33 72 -10 60 -14 -3 -19 -2 -14 6 8 14 6 15 -12 3z"/>
<path d="M1130 628 c0 -10 2 -18 4 -18 2 0 11 -3 19 -6 11 -4 13 1 10 19 -5
28 -33 32 -33 5z"/>
<path d="M420 625 c-14 -8 -20 -14 -14 -15 5 0 19 7 30 15 24 18 16 19 -16 0z"/>
<path d="M720 619 c0 -5 5 -7 10 -4 6 3 10 8 10 11 0 2 -4 4 -10 4 -5 0 -10
-5 -10 -11z"/>
<path d="M1208 624 c-5 -4 -8 -16 -8 -28 0 -14 3 -17 11 -9 6 6 9 19 7 28 -1
9 -6 13 -10 9z"/>
<path d="M1410 616 c0 -8 5 -18 10 -21 6 -3 10 3 10 14 0 12 -4 21 -10 21 -5
0 -10 -6 -10 -14z"/>
<path d="M601 604 c0 -11 3 -14 6 -6 3 7 2 16 -1 19 -3 4 -6 -2 -5 -13z"/>
<path d="M1117 599 c7 -7 15 -10 18 -7 3 3 -2 9 -12 12 -14 6 -15 5 -6 -5z"/>
<path d="M90 496 c0 -79 3 -96 15 -96 8 0 15 7 15 15 0 7 7 18 15 23 13 7 14
14 6 35 -9 22 -8 27 6 27 12 0 9 6 -11 25 -14 13 -26 31 -26 39 0 8 -4 18 -10
21 -6 4 -10 -28 -10 -89z"/>
<path d="M488 534 c6 -3 10 -10 6 -15 -3 -5 7 -9 22 -9 32 0 22 15 -16 24 -14
3 -19 3 -12 0z"/>
<path d="M602 520 c0 -14 2 -19 5 -12 2 6 2 18 0 25 -3 6 -5 1 -5 -13z"/>
<path d="M727 528 c-13 -7 -17 -23 -17 -70 0 -48 3 -59 12 -50 7 7 25 12 40
12 27 0 28 2 28 48 0 41 -4 50 -23 59 -15 7 -29 7 -40 1z"/>
<path d="M960 530 c-24 -15 -7 -18 20 -3 14 7 18 13 10 13 -8 0 -22 -4 -30
-10z"/>
<path d="M1060 530 c-18 -12 -2 -12 25 0 13 6 15 9 5 9 -8 0 -22 -4 -30 -9z"/>
<path d="M1147 533 c-10 -9 -9 -33 1 -33 4 0 8 9 8 20 0 23 0 22 -9 13z"/>
<path d="M1413 533 c-20 -7 -15 -19 7 -19 11 0 20 4 20 8 0 10 -13 16 -27 11z"/>
<path d="M1240 510 c0 -11 4 -20 10 -20 5 0 7 8 4 18 -5 14 -3 14 10 -2 16
-19 16 -19 16 2 0 15 -6 22 -20 22 -13 0 -20 -7 -20 -20z"/>
<path d="M197 514 c-4 -4 -6 -30 -5 -58 l1 -51 6 45 c5 39 9 45 29 44 12 0 21
4 19 10 -4 13 -40 20 -50 10z"/>
<path d="M280 488 c0 -25 -3 -29 -10 -18 -7 12 -11 10 -18 -10 -11 -30 2 -45
46 -55 35 -7 46 9 12 18 -28 7 -28 67 0 74 24 6 16 23 -11 23 -15 0 -19 -7
-19 -32z"/>
<path d="M351 483 c2 -31 3 -33 6 -10 2 15 11 27 19 27 8 0 14 5 14 10 0 6 -9
10 -20 10 -17 0 -20 -6 -19 -37z"/>
<path d="M1413 503 c-7 -3 -13 -18 -13 -34 0 -22 5 -29 20 -29 11 0 20 3 21 8
0 4 2 17 3 29 3 23 -10 33 -31 26z m12 -23 c3 -5 1 -10 -4 -10 -6 0 -11 5 -11
10 0 6 2 10 4 10 3 0 8 -4 11 -10z"/>
<path d="M465 480 c-3 -5 -1 -10 4 -10 6 0 11 5 11 10 0 6 -2 10 -4 10 -3 0
-8 -4 -11 -10z"/>
<path d="M661 474 c0 -11 3 -14 6 -6 3 7 2 16 -1 19 -3 4 -6 -2 -5 -13z"/>
<path d="M980 480 c0 -5 5 -10 11 -10 5 0 7 5 4 10 -3 6 -8 10 -11 10 -2 0 -4
-4 -4 -10z"/>
<path d="M1156 479 c3 -5 12 -9 21 -9 19 0 9 13 -12 16 -8 1 -13 -2 -9 -7z"/>
<path d="M1097 460 c-3 -13 0 -20 9 -20 15 0 19 26 5 34 -5 3 -11 -3 -14 -14z"/>
<path d="M1240 460 c0 -13 7 -20 20 -20 11 0 20 4 20 10 0 5 -8 7 -17 4 -15
-5 -15 -3 1 10 19 16 19 16 -2 16 -15 0 -22 -6 -22 -20z"/>
<path d="M980 448 c0 -6 6 -8 14 -5 8 3 17 2 20 -4 2 -5 3 -4 2 2 -3 15 -36
21 -36 7z"/>
<path d="M1137 453 c-10 -10 -8 -43 2 -43 5 0 12 6 14 13 3 7 6 5 6 -5 1 -27
21 -21 21 6 0 13 -7 27 -16 30 -19 7 -19 7 -27 -1z"/>
<path d="M630 426 c0 -16 6 -26 15 -26 10 0 14 8 12 22 -5 32 -27 35 -27 4z"/>
<path d="M155 430 c-4 -6 -11 -8 -16 -5 -5 4 -9 -1 -9 -9 0 -21 19 -21 27 0 5
13 7 13 14 2 6 -9 9 -9 9 -1 0 16 -17 26 -25 13z"/>
<path d="M350 427 c0 -10 8 -17 18 -17 9 0 13 4 7 8 -5 4 -13 11 -17 16 -5 5
-8 2 -8 -7z"/>
<path d="M453 432 c-8 -5 -9 -13 -3 -22 8 -13 10 -13 10 2 0 9 6 19 13 21 6 3
8 6 2 6 -5 0 -15 -3 -22 -7z"/>
<path d="M550 421 c0 -15 6 -21 21 -21 14 0 19 5 17 17 -5 26 -38 29 -38 4z"/>
<path d="M853 419 c-2 -23 3 -25 10 -4 4 8 3 16 -1 19 -4 3 -9 -4 -9 -15z"/>
<path d="M1337 434 c-14 -14 -7 -24 16 -20 12 1 21 7 20 12 -3 12 -27 17 -36
8z"/>
<path d="M470 410 c0 -5 5 -10 11 -10 5 0 7 5 4 10 -3 6 -8 10 -11 10 -2 0 -4
-4 -4 -10z"/>
<path d="M670 410 c0 -5 5 -10 10 -10 6 0 10 5 10 10 0 6 -4 10 -10 10 -5 0
-10 -4 -10 -10z"/>
<path d="M810 410 c0 -5 5 -10 10 -10 6 0 10 5 10 10 0 6 -4 10 -10 10 -5 0
-10 -4 -10 -10z"/>
<path d="M1080 410 c0 -5 5 -10 11 -10 5 0 7 5 4 10 -3 6 -8 10 -11 10 -2 0
-4 -4 -4 -10z"/>
<path d="M150 390 c0 -5 5 -10 10 -10 6 0 10 5 10 10 0 6 -4 10 -10 10 -5 0
-10 -4 -10 -10z"/>
<path d="M1340 390 c0 -5 6 -10 14 -10 8 0 17 -6 19 -12 4 -8 6 -7 6 3 1 9 -6
20 -15 23 -21 8 -24 8 -24 -4z"/>
<path d="M0 370 c0 -5 7 -7 15 -4 19 8 19 14 0 14 -8 0 -15 -4 -15 -10z"/>
<path d="M118 339 c-67 -34 -114 -47 -104 -31 4 6 25 16 47 22 55 15 45 21
-14 8 -43 -9 -47 -12 -47 -38 l0 -29 39 14 c65 23 151 66 151 76 0 12 -7 10
-72 -22z"/>
<path d="M780 361 c0 -4 -11 -6 -25 -3 -14 2 -25 0 -25 -6 0 -6 16 -9 36 -7
41 4 51 10 29 18 -8 4 -15 3 -15 -2z"/>
<path d="M1325 360 c-3 -5 2 -10 12 -10 11 0 25 -6 32 -12 11 -10 12 -10 7 -1
-11 20 -44 35 -51 23z"/>
<path d="M179 326 c-35 -19 -83 -40 -106 -46 -24 -7 -43 -17 -43 -22 0 -4 -7
-8 -15 -8 -8 0 -15 -7 -15 -15 0 -21 14 -19 61 10 38 24 41 25 62 9 12 -9 15
-14 6 -11 -8 3 -37 -6 -64 -18 -27 -13 -52 -22 -55 -20 -4 2 -7 -12 -8 -32 -1
-28 1 -34 10 -25 7 7 20 12 29 12 10 0 19 4 21 8 3 9 104 82 112 82 2 0 33 19
69 43 35 23 72 47 82 52 16 10 16 11 -4 11 -11 0 -21 -3 -21 -7 0 -4 -13 -12
-30 -19 -16 -7 -30 -16 -30 -21 0 -5 -7 -9 -15 -9 -9 0 -26 -6 -38 -14 -30
-19 -67 -29 -67 -19 0 5 15 17 33 26 92 49 120 66 106 67 -9 0 -45 -15 -80
-34z"/>
<path d="M356 335 c-16 -14 -35 -25 -43 -25 -17 0 -17 -15 2 -30 11 -9 15 -9
15 -1 0 18 47 61 65 61 9 0 13 5 10 10 -9 15 -17 12 -49 -15z"/>
<path d="M444 345 c4 -10 -1 -15 -15 -15 -11 0 -17 -4 -14 -10 3 -5 0 -10 -8
-10 -18 0 -59 -35 -50 -44 3 -3 0 -6 -8 -6 -8 0 -23 -7 -33 -15 -19 -14 -18
-15 15 -15 29 0 45 9 87 51 53 51 65 79 36 79 -10 0 -14 -6 -10 -15z"/>
<path d="M550 349 c0 -6 -9 -9 -19 -6 -20 5 -36 -17 -25 -34 3 -5 2 -9 -3 -8
-17 4 -63 -14 -57 -22 3 -5 0 -9 -5 -9 -6 0 -11 -7 -11 -15 0 -11 11 -15 37
-15 20 0 33 3 30 7 -4 3 2 12 13 20 11 8 20 21 20 29 0 8 11 26 25 39 16 17
20 25 10 25 -8 0 -15 -5 -15 -11z"/>
<path d="M597 353 c-4 -3 -7 -17 -7 -31 0 -15 -7 -26 -19 -29 -11 -3 -22 -12
-25 -20 -4 -9 -2 -12 7 -7 8 5 7 2 -2 -9 -12 -15 -10 -17 30 -17 27 0 39 3 31
9 -10 6 -10 10 3 21 8 7 15 21 15 32 0 11 5 28 10 39 9 16 7 19 -13 19 -13 0
-27 -3 -30 -7z m22 -20 c-7 -10 -14 -20 -16 -22 -1 -2 -1 6 0 18 1 11 8 21 15
21 12 0 12 -3 1 -17z"/>
<path d="M854 345 c-3 -8 -2 -20 2 -27 4 -7 9 -23 10 -36 4 -31 4 -32 50 -39
37 -6 38 -6 21 11 -9 10 -17 22 -17 28 0 5 -9 21 -20 35 -12 15 -20 20 -20 12
0 -11 -2 -11 -10 1 -7 11 -5 17 8 22 16 6 16 7 -1 7 -10 1 -20 -6 -23 -14z"/>
<path d="M928 353 c6 -3 12 -11 12 -19 0 -8 4 -14 9 -14 5 0 14 -13 20 -30 5
-16 16 -30 23 -30 9 0 9 -3 -2 -11 -11 -7 7 -9 63 -7 42 2 77 0 77 -4 0 -5 14
-8 30 -8 17 0 30 5 30 10 0 6 -7 10 -16 10 -8 0 -37 22 -65 49 -27 27 -61 51
-75 54 l-25 4 30 -29 c17 -17 31 -34 31 -39 0 -4 9 -11 20 -14 28 -9 25 -25
-5 -25 -18 0 -41 16 -74 50 -26 27 -47 51 -45 52 1 2 -10 4 -24 4 -15 1 -21
-1 -14 -3z"/>
<path d="M1090 350 c0 -5 5 -10 10 -10 12 0 14 -2 73 -51 21 -17 40 -29 43
-26 5 5 74 -59 74 -69 0 -2 -11 -2 -25 2 -18 4 -27 1 -31 -11 -5 -13 -9 -14
-15 -3 -7 10 -9 10 -9 1 0 -9 -23 -13 -77 -14 -52 -1 -68 -4 -48 -8 30 -7 30
-7 5 -13 -32 -9 -19 -21 25 -23 37 -1 50 20 18 28 -10 3 4 5 30 6 43 1 77 -14
77 -33 0 -15 -41 -26 -59 -16 -13 7 -22 7 -26 0 -4 -7 -12 -7 -25 0 -14 7 -21
5 -34 -13 -9 -12 -15 -16 -13 -8 1 7 -4 16 -11 18 -8 3 -10 -1 -6 -11 8 -20
-10 -21 -26 -1 -7 8 -28 15 -46 15 -19 0 -34 4 -34 9 0 5 9 7 20 4 11 -3 20 0
20 6 0 6 -6 11 -12 11 -9 0 -8 3 1 9 9 6 -110 11 -315 12 -440 3 -424 3 -412
10 6 4 3 11 -8 17 -16 9 -17 14 -7 29 6 10 15 17 20 16 5 -1 10 5 10 13 0 8
-6 13 -14 10 -7 -3 -13 0 -13 7 0 8 -4 6 -10 -3 -5 -8 -10 -11 -10 -7 0 5 -12
-1 -26 -12 -15 -12 -33 -21 -40 -21 -8 0 -14 -7 -14 -15 0 -14 -11 -19 -36
-16 -6 1 -18 -7 -25 -16 -13 -17 -13 -17 6 -3 19 14 19 14 6 -3 -21 -26 -67
-48 -88 -41 -13 4 -15 3 -4 -4 9 -7 10 -11 2 -17 -7 -4 -11 -27 -10 -55 l3
-49 563 -1 c447 0 563 2 563 12 0 9 3 10 8 2 9 -15 156 -19 147 -4 -3 5 -1 10
4 10 6 0 11 -4 11 -10 0 -6 32 -10 75 -10 67 0 75 2 75 19 0 11 -15 30 -32 42
-18 13 -37 28 -43 35 -5 6 -26 20 -45 30 -56 31 -63 41 -33 47 31 6 65 -12 59
-30 -3 -7 0 -15 6 -19 7 -4 8 -3 4 4 -4 7 -2 12 4 12 6 0 13 -7 16 -15 4 -8
12 -15 19 -15 9 0 11 -8 7 -22 -4 -17 -2 -20 12 -15 10 4 20 7 22 7 2 0 4 15
4 34 0 29 -5 37 -30 48 -16 7 -30 16 -30 19 0 10 -77 49 -95 49 -8 0 -15 5
-15 10 0 6 -10 10 -22 11 -13 0 -17 3 -10 6 7 3 -1 14 -23 29 -19 13 -51 35
-71 49 -38 26 -64 32 -64 15z m-853 -184 c5 -4 3 -6 -3 -4 -6 2 -20 -7 -30
-20 -11 -12 -30 -25 -44 -28 -14 -3 -30 -6 -36 -7 -14 -3 -44 -33 -44 -44 0
-5 -9 -9 -20 -9 -16 0 -12 8 22 37 24 20 46 37 51 37 4 1 18 12 31 25 23 23
57 29 73 13z m1049 -37 c3 -6 -5 -3 -20 6 -14 10 -26 19 -26 22 0 7 39 -17 46
-28z m-936 6 c-7 -8 -23 -15 -36 -15 -18 0 -24 -6 -24 -21 0 -19 -1 -19 -17
-3 -16 16 -16 18 6 35 13 11 37 19 53 19 26 0 29 -2 18 -15z m150 7 c0 -14
-34 -32 -61 -32 -31 0 -32 0 -14 20 11 13 29 19 47 18 15 -1 28 -4 28 -6z
m130 -7 c0 -9 -9 -15 -25 -15 -17 0 -25 -6 -26 -17 0 -13 -3 -11 -10 6 -7 18
-6 27 3 33 22 13 58 9 58 -7z m303 -10 c22 -30 14 -34 -60 -26 -7 0 -13 12
-13 26 0 21 5 25 28 25 17 -1 34 -10 45 -25z m-158 5 c33 -13 25 -27 -20 -32
-33 -4 -45 5 -45 33 0 12 32 12 65 -1z m485 -29 c0 -15 -19 -23 -38 -16 -14 5
-14 7 -2 15 19 12 40 13 40 1z m-996 -27 c8 -21 8 -24 -4 -24 -5 0 -11 8 -11
18 -1 15 -2 15 -6 1 -4 -15 -43 -35 -43 -22 0 6 43 42 51 43 4 0 10 -7 13 -16z
m1041 -24 c-10 -4 -30 -4 -44 -1 -25 5 -25 6 -3 9 12 2 22 8 22 13 0 6 10 5
22 -2 21 -12 22 -12 3 -19z m-1105 -30 c0 -5 -4 -10 -9 -10 -6 0 -13 5 -16 10
-3 6 1 10 9 10 9 0 16 -4 16 -10z"/>
<path d="M1219 325 c28 -19 53 -35 56 -35 4 0 14 -7 22 -16 9 -8 24 -13 34
-11 11 3 16 0 13 -8 -3 -7 4 -15 15 -18 12 -3 21 -2 21 2 0 14 -34 38 -63 45
-17 4 -25 11 -21 18 4 6 3 9 -2 6 -5 -3 -25 3 -44 13 -19 11 -30 19 -25 20 13
1 -26 17 -44 18 -7 1 10 -15 38 -34z"/>
<path d="M1415 350 c27 -12 43 -12 25 0 -8 5 -22 9 -30 9 -10 0 -8 -3 5 -9z"/>
<path d="M1290 336 c28 -17 50 -21 35 -7 -6 5 -21 12 -35 15 l-25 7 25 -15z"/>
<path d="M675 331 c-3 -2 -5 -11 -5 -19 0 -8 -8 -21 -17 -28 -11 -8 -13 -13
-5 -14 6 0 12 -7 12 -15 0 -10 10 -15 29 -15 32 0 40 18 33 72 -3 19 -9 26
-24 25 -10 -1 -21 -3 -23 -6z"/>
<path d="M780 323 c-9 -2 -21 -12 -28 -23 -10 -17 -10 -20 3 -20 21 0 19 -28
-2 -33 -11 -3 -7 -5 10 -6 15 -1 27 4 27 12 0 9 2 9 8 0 5 -8 13 -9 22 -3 8 6
11 10 6 10 -5 0 -3 7 4 15 10 12 10 15 -4 15 -9 0 -16 6 -16 14 0 18 -10 24
-30 19z"/>
<path d="M1420 316 c0 -2 7 -7 16 -10 8 -3 12 -2 9 4 -6 10 -25 14 -25 6z"/>
<path d="M1395 280 c21 -11 40 -18 43 -16 5 6 -54 36 -70 36 -7 0 5 -9 27 -20z"/>
<path d="M276 281 c-3 -5 1 -11 9 -15 8 -3 15 -1 15 4 0 13 -18 22 -24 11z"/>
<path d="M1409 210 c17 -14 27 -18 34 -11 13 13 9 17 -28 25 l-30 6 24 -20z"/>
<path d="M275 202 c9 -9 65 -11 60 -2 -3 5 -19 8 -35 8 -17 -1 -28 -3 -25 -6z"/>
<path d="M692 188 c16 -10 89 -10 105 0 6 4 -18 7 -53 8 -36 0 -59 -3 -52 -8z"/>
<path d="M900 190 c-13 -8 -13 -10 2 -10 9 0 20 5 23 10 8 13 -5 13 -25 0z"/>
</g>
</svg>
